<svg id="Layer_3" data-name="Layer 3" xmlns="http://www.w3.org/2000/svg" xmlns:xlink="http://www.w3.org/1999/xlink" viewBox="0 0 795.14 322.36"><defs><style>.cls-1{fill:url(#linear-gradient);}.cls-2{fill:url(#linear-gradient-2);}.cls-3{fill:url(#linear-gradient-3);}.cls-4{fill:url(#linear-gradient-4);}.cls-5{fill:url(#linear-gradient-5);}.cls-6{fill:url(#linear-gradient-6);}.cls-7{fill:url(#linear-gradient-7);}</style><linearGradient id="linear-gradient" x1="168.39" y1="411.53" x2="168.39" y2="89.17" gradientUnits="userSpaceOnUse"><stop offset="0" stop-color="#c60018"/><stop offset="1" stop-color="#fc0321"/></linearGradient><linearGradient id="linear-gradient-2" x1="61.65" y1="340.69" x2="61.65" y2="174.21" xlink:href="#linear-gradient"/><linearGradient id="linear-gradient-3" x1="275.59" y1="340.74" x2="275.59" y2="174.22" xlink:href="#linear-gradient"/><linearGradient id="linear-gradient-4" x1="485.4" y1="359.32" x2="485.4" y2="151.02" xlink:href="#linear-gradient"/><linearGradient id="linear-gradient-5" x1="713.53" y1="359.42" x2="713.53" y2="151" xlink:href="#linear-gradient"/><linearGradient id="linear-gradient-6" x1="568.45" y1="359.32" x2="568.45" y2="243.1" xlink:href="#linear-gradient"/><linearGradient id="linear-gradient-7" x1="796.1" y1="359.43" x2="796.1" y2="243.12" xlink:href="#linear-gradient"/></defs><g id="LOGO"><path id="CENTER" class="cls-1" d="M212.55,92V364.27a2.81,2.81,0,0,1-.74,1.92l-40.87,44.43a2.83,2.83,0,0,1-4.17,0L125,365.31a2.79,2.79,0,0,1-.75-1.92V92a2.84,2.84,0,0,1,2.83-2.84h11.71A2.84,2.84,0,0,1,141.61,92V356.64a2.85,2.85,0,0,0,.76,1.94l12.77,13.62a2.83,2.83,0,0,0,4.9-1.93V136.17a2.84,2.84,0,0,1,2.83-2.84h11.6a2.84,2.84,0,0,1,2.84,2.84v234a2.84,2.84,0,0,0,4.91,1.93l12.41-13.37a2.81,2.81,0,0,0,.76-1.93V92a2.84,2.84,0,0,1,2.84-2.84h11.49A2.84,2.84,0,0,1,212.55,92Z" transform="translate(-16.93 -89.17)"/><path id="LEFT" class="cls-2" d="M103.53,232H90.88a2.83,2.83,0,0,0-2.83,2.83V291.4a2.83,2.83,0,0,1-4.92,1.92L40.29,246.83A2.83,2.83,0,0,1,40,243.3l34-49.54a2.85,2.85,0,0,1,2.34-1.23h27.15a2.84,2.84,0,0,0,2.84-2.84V177a2.84,2.84,0,0,0-2.84-2.83H67a2.84,2.84,0,0,0-2.35,1.24L17.42,245a2.85,2.85,0,0,0,.26,3.51l83.77,91.29a2.83,2.83,0,0,0,4.92-1.91v-103A2.84,2.84,0,0,0,103.53,232Z" transform="translate(-16.93 -89.17)"/><path id="RIGHT" class="cls-3" d="M230.41,337.9v-103a2.84,2.84,0,0,1,2.84-2.84h12.17a2.84,2.84,0,0,1,2.84,2.84v57.89a2.84,2.84,0,0,0,4.92,1.92l44.25-47.92a2.83,2.83,0,0,0,.25-3.53l-34.07-49.45a2.83,2.83,0,0,0-2.33-1.23h-28a2.84,2.84,0,0,1-2.84-2.83V177.05a2.84,2.84,0,0,1,2.84-2.83H270.7a2.81,2.81,0,0,1,2.34,1.24L320.28,245a2.85,2.85,0,0,1-.26,3.52l-84.69,91.35A2.84,2.84,0,0,1,230.41,337.9Z" transform="translate(-16.93 -89.17)"/></g><g id="L"><path id="L1" class="cls-4" d="M427.74,356.49V153.86a2.84,2.84,0,0,1,4.84-2l26.27,26.23a2.8,2.8,0,0,1,.84,2v144a2.83,2.83,0,0,0,2.83,2.84h51.42a2.8,2.8,0,0,1,2,.85l26.28,26.74a2.83,2.83,0,0,1-2,4.82H430.57A2.83,2.83,0,0,1,427.74,356.49Z" transform="translate(-16.93 -89.17)"/><path id="L2" class="cls-5" d="M655.57,356.49V153.84a2.83,2.83,0,0,1,4.83-2l26.33,26.32a2.84,2.84,0,0,1,.83,2V324.08a2.84,2.84,0,0,0,2.83,2.84h51.42a2.84,2.84,0,0,1,2,.83l26.83,26.83a2.83,2.83,0,0,1-2,4.84l-110.24-.09A2.84,2.84,0,0,1,655.57,356.49Z" transform="translate(-16.93 -89.17)"/></g><g id="I"><path id="I1" class="cls-6" d="M552.24,356.49V245.94a2.83,2.83,0,0,1,4.83-2l26.76,26.71a2.83,2.83,0,0,1,.83,2v83.85a2.83,2.83,0,0,1-2.83,2.83H555.07A2.83,2.83,0,0,1,552.24,356.49Z" transform="translate(-16.93 -89.17)"/><path id="I2" class="cls-7" d="M780.13,356.59V246a2.83,2.83,0,0,1,4.83-2l26.28,26.28a2.83,2.83,0,0,1,.83,2v84.35a2.84,2.84,0,0,1-2.83,2.84H783A2.83,2.83,0,0,1,780.13,356.59Z" transform="translate(-16.93 -89.17)"/></g></svg>